<?xml version="1.0" encoding="UTF-8" standalone="no"?>
<svg
   width="33.750061mm"
   height="33.750061mm"
   viewBox="0 0 33.750061 33.750061"
   version="1.1"
   id="svg974"
   sodipodi:docname="com.github.SamuelSchlemperSchlemuel.SingWriter.svg"
   inkscape:version="1.3.2 (091e20ef0f, 2023-11-25)"
   xml:space="preserve"
   xmlns:inkscape="http://www.inkscape.org/namespaces/inkscape"
   xmlns:sodipodi="http://sodipodi.sourceforge.net/DTD/sodipodi-0.dtd"
   xmlns="http://www.w3.org/2000/svg"
   xmlns:svg="http://www.w3.org/2000/svg"
   xmlns:rdf="http://www.w3.org/1999/02/22-rdf-syntax-ns#"
   xmlns:cc="http://creativecommons.org/ns#"
   xmlns:dc="http://purl.org/dc/elements/1.1/"><sodipodi:namedview
     id="namedview1"
     pagecolor="#ffffff"
     bordercolor="#000000"
     borderopacity="0.25"
     inkscape:showpageshadow="2"
     inkscape:pageopacity="0.0"
     inkscape:pagecheckerboard="0"
     inkscape:deskcolor="#d1d1d1"
     inkscape:document-units="mm"
     inkscape:zoom="2.7772223"
     inkscape:cx="12.242448"
     inkscape:cy="86.597316"
     inkscape:window-width="1366"
     inkscape:window-height="699"
     inkscape:window-x="0"
     inkscape:window-y="32"
     inkscape:window-maximized="1"
     inkscape:current-layer="svg974" /><defs
     id="defs968"><clipPath
       clipPathUnits="userSpaceOnUse"
       id="clipPath18689"><rect
         clip-path="none"
         transform="rotate(45)"
         ry="32.000008"
         rx="32.000008"
         y="123.9986"
         x="486.03726"
         height="362.94299"
         width="362.94299"
         id="rect18691"
         style="display:inline;opacity:1;vector-effect:none;fill:#4a86cf;fill-opacity:1;stroke:none;stroke-width:26.0669;stroke-linecap:butt;stroke-linejoin:miter;stroke-miterlimit:4;stroke-dasharray:none;stroke-dashoffset:0;stroke-opacity:1;marker:none;marker-start:none;marker-mid:none;marker-end:none;paint-order:normal;enable-background:new" /></clipPath><clipPath
       clipPathUnits="userSpaceOnUse"
       id="clipPath18689-3"><rect
         clip-path="none"
         transform="rotate(45)"
         ry="32.000008"
         rx="32.000008"
         y="123.9986"
         x="486.03726"
         height="362.94299"
         width="362.94299"
         id="rect18691-6"
         style="display:inline;opacity:1;vector-effect:none;fill:#4a86cf;fill-opacity:1;stroke:none;stroke-width:26.0669;stroke-linecap:butt;stroke-linejoin:miter;stroke-miterlimit:4;stroke-dasharray:none;stroke-dashoffset:0;stroke-opacity:1;marker:none;marker-start:none;marker-mid:none;marker-end:none;paint-order:normal;enable-background:new" /></clipPath></defs><metadata
     id="metadata971"><rdf:RDF><cc:Work
         rdf:about=""><dc:format>image/svg+xml</dc:format><dc:type
           rdf:resource="http://purl.org/dc/dcmitype/StillImage" /><dc:title /></cc:Work></rdf:RDF></metadata><rect
     style="display:inline;fill:#ffffff;fill-opacity:1;stroke-width:0.264583"
     id="rect1"
     width="34.020576"
     height="34.398296"
     x="-0.18616965"
     y="-0.23599897"
     ry="0"
     sodipodi:insensitive="true" /><path
     style="fill:#000000;stroke-width:2.18646"
     d="m 17.677389,19.844968 c -1.588628,-0.03806 -3.368138,-0.149487 -4.131822,-0.258736 l -0.288537,-0.04128 0.09234,-0.02708 c 0.345619,-0.101406 1.242766,-0.269487 1.858164,-0.34813 1.72499,-0.220436 3.414647,-0.301529 5.309046,-0.254792 l 1.050267,0.02591 0.48474,0.04143 0.484738,0.04146 -0.634779,0.0033 c -0.705148,0.0038 -1.562112,0.0313 -2.365985,0.07613 l -0.530906,0.02962 0.300078,0.01567 c 0.30409,0.01601 1.380394,0.06194 2.87654,0.122988 0.452194,0.01837 1.059849,0.05206 1.350342,0.07469 l 0.528174,0.04112 -0.84252,0.01601 c -1.065823,0.02034 -2.750541,0.06179 -3.589377,0.08839 -0.355474,0.01137 -1.295524,0.0224 -2.088994,0.02475 l -1.442675,0.0041 0.173123,0.01727 c 1.10357,0.110384 2.595787,0.177542 4.911405,0.221037 0.460505,0.0087 0.832993,0.02013 0.827744,0.02528 -0.0052,0.0052 -0.397608,0.02433 -0.871911,0.04241 l -0.862369,0.03286 -1.177226,-0.0042 c -0.64747,-0.0024 -1.286288,-0.0072 -1.419589,-0.01033 z M 12.654786,19.38469 c 0.0092,-0.02394 0.170934,-0.500583 0.359313,-1.059185 0.35977,-1.06684 0.717435,-2.110947 0.988391,-2.88535 0.08885,-0.253913 0.206755,-0.591499 0.262022,-0.750191 l 0.100476,-0.288537 1.010188,-1.018162 1.01019,-1.018163 0.213202,-0.05049 c 0.205288,-0.0486 0.640295,-0.100729 0.662586,-0.0794 0.006,0.0056 -0.201789,0.220033 -0.461656,0.476317 -1.461661,1.441564 -1.953292,1.936442 -1.929814,1.94257 0.01442,0.0038 0.126157,0.02961 0.248297,0.05741 l 0.222084,0.05058 1.308192,-1.30848 1.308191,-1.308481 0.139637,0.01567 c 0.0768,0.0087 0.224319,0.04033 0.327787,0.07029 0.103472,0.02999 0.191839,0.05078 0.196388,0.04623 0.01125,-0.01125 -0.323165,-0.176009 -0.481255,-0.237336 -0.189764,-0.07361 -0.449579,-0.135412 -0.704113,-0.167438 l -0.227163,-0.02861 -0.336492,0.01456 c -0.18506,0.008 -0.4092,0.02962 -0.498066,0.04791 -0.595994,0.122594 -1.247739,0.411147 -1.638478,0.725391 l -0.161185,0.129623 0.05641,-0.08035 c 0.031,-0.04419 0.181434,-0.205549 0.3343,-0.358592 l 0.277921,-0.278245 0.230827,-0.152594 c 0.460977,-0.30472 0.860582,-0.467491 1.354291,-0.551644 l 0.284588,-0.04849 0.415488,0.01056 0.415492,0.01056 0.27518,0.06321 c 0.611651,0.14051 1.115785,0.374126 1.894604,0.878019 0.323026,0.209004 0.891544,0.554042 1.157266,0.702369 0.723198,0.403692 1.460435,0.640955 2.15611,0.693897 l 0.306631,0.02334 0.322297,-0.02302 c 0.572217,-0.04088 0.920657,-0.135946 1.435991,-0.391779 l 0.323159,-0.160413 0.253911,-0.189761 c 0.476917,-0.356418 0.988135,-0.922038 1.280056,-1.416267 0.105252,-0.178195 0.262432,-0.495817 0.245365,-0.495817 -0.0038,0 -0.05736,0.06492 -0.119271,0.144253 -0.171795,0.220151 -0.529595,0.581406 -0.748294,0.755522 -0.729477,0.580776 -1.529704,0.886976 -2.47539,0.947183 l -0.340247,0.02164 -0.30608,-0.02321 c -0.932636,-0.07062 -1.665373,-0.345812 -3.08107,-1.157025 -0.658259,-0.377195 -1.003811,-0.554371 -1.343125,-0.688675 -0.296967,-0.117545 -0.705061,-0.23581 -0.994723,-0.288277 l -0.219287,-0.03973 -0.421462,-0.01184 -0.421466,-0.01182 -0.224854,0.0277 c -1.505145,0.185389 -2.663362,1.004504 -3.152278,2.229352 -0.0874,0.218925 -0.145178,0.437012 -0.173384,0.654309 l -0.01688,0.129665 -0.05319,-0.263744 c -0.112278,-0.5566 -0.1507,-1.299735 -0.09408,-1.82039 0.04849,-0.44613 0.20732,-1.02346 0.372429,-1.353685 0.538192,-1.0764289 1.526279,-1.8299454 2.707845,-2.0650076 0.955765,-0.1901347 1.847199,-0.093841 2.791707,0.3015623 0.431742,0.1807553 0.593467,0.2682519 1.878324,1.0162957 0.908489,0.5289186 1.499777,0.7863636 2.131357,0.9279926 l 0.261949,0.05877 0.338814,0.0269 0.338809,0.0269 0.282279,-0.02682 c 0.341641,-0.03242 0.557216,-0.07539 0.836491,-0.166645 0.526361,-0.172003 1.022505,-0.4765087 1.431281,-0.878428 0.196257,-0.1929532 0.206446,-0.1872038 0.05837,0.033041 -0.352792,0.524697 -0.839091,0.934419 -1.458205,1.228577 -0.443582,0.210752 -0.826477,0.316246 -1.313474,0.361855 l -0.295806,0.0277 -0.317022,-0.02771 C 23.081426,11.060077 22.736001,10.985535 22.351632,10.85483 21.976154,10.727137 21.623275,10.568493 20.806692,10.160226 19.533478,9.5238964 18.958476,9.3043512 18.183615,9.1589302 l -0.194596,-0.036508 -0.452196,-0.01225 -0.452196,-0.01225 -0.24029,0.027576 C 15.661395,9.2614019 14.863766,9.772812 14.27571,10.772584 l -0.105792,0.179858 0.160515,-0.143722 c 0.627912,-0.562184 1.400317,-0.8938291 2.334791,-1.002491 l 0.331224,-0.03854 0.357787,0.013099 c 0.540414,0.019884 0.967143,0.1031972 1.516367,0.295799 0.484134,0.169782 0.854409,0.337784 1.819099,0.825412 1.285793,0.649939 1.632108,0.795427 2.262113,0.950313 1.062195,0.261144 2.211997,0.146013 3.12834,-0.313239 0.726065,-0.363887 1.438456,-1.070131 1.795062,-1.7795685 0.119411,-0.2375488 0.219569,-0.5239524 0.278234,-0.7955738 0.0566,-0.262041 0.09965,-0.7262471 0.08042,-0.8666993 -0.0076,-0.055818 -0.0082,-0.1014752 -0.0013,-0.1014752 0.02278,0 0.133468,0.5025609 0.179336,0.8144257 l 0.0449,0.3050902 1.06e-4,0.3815542 1.1e-4,0.3815565 -0.03544,0.2878462 c -0.05054,0.410425 -0.132467,0.757877 -0.290991,1.234239 l -0.138257,0.415492 -0.181347,0.369324 c -0.2999,0.610743 -0.582649,1.021387 -1.011257,1.468678 -0.411792,0.429735 -0.839835,0.747697 -1.361307,1.011209 -1.330198,0.672184 -2.949728,0.682545 -4.410609,0.02821 -0.223562,-0.100143 -0.671287,-0.341416 -0.846216,-0.456031 l -0.05173,-0.03389 -1.374843,1.391522 c -0.756163,0.765336 -1.404056,1.42912 -1.43976,1.475072 l -0.06492,0.08353 -0.807899,0.39989 c -0.444344,0.219936 -1.249356,0.614456 -1.788916,0.876705 -0.539561,0.262251 -1.204347,0.590035 -1.477302,0.728407 -0.272953,0.138383 -0.505725,0.255603 -0.517269,0.260509 l -0.02099,0.0091 z M 13.7001,17.910013 c 0.173038,-0.288537 0.447386,-0.735858 0.458185,-0.747064 0.01688,-0.0175 0.220389,0.09569 0.331301,0.184014 0.132031,0.105126 0.302452,0.345821 0.302452,0.427188 0,0.0303 0.01197,0.05507 0.02652,0.05507 0.02464,0 1.780262,-0.874822 1.998809,-0.995988 0.05387,-0.02985 0.09801,-0.06 0.0981,-0.06694 1.04e-4,-0.0072 -0.03854,-0.02668 -0.08585,-0.04378 l -0.08601,-0.03112 -0.1312,-0.1312 -0.1312,-0.1312 -0.03667,-0.123511 c -0.0201,-0.06794 -0.03667,-0.195055 -0.03667,-0.282494 v -0.158996 l 1.230621,-1.250639 c 1.327939,-1.349544 1.44296,-1.469926 1.404485,-1.469926 h -0.02529 l 0.01324,-0.03464 c 0.02122,-0.05519 -0.01045,-0.04173 -0.173387,0.07393 l -0.152956,0.10857 -1.205036,1.206168 -1.205034,1.206168 -0.09914,0.05223 -0.09915,0.05227 -0.161584,6.87e-4 -0.161582,6.86e-4 -0.135355,-0.0686 -0.135355,-0.0686 -0.07574,-0.09299 c -0.102232,-0.125502 -0.150565,-0.250297 -0.161085,-0.416127 l -0.0087,-0.138483 -0.28088,-0.01155 c -0.15447,-0.0063 -0.291059,-0.0052 -0.303501,0.0025 -0.02593,0.0162 -0.130552,0.302411 -0.560083,1.532456 -0.254978,0.73019 -0.379555,1.07296 -0.578852,1.592715 l -0.0177,0.04614 0.02301,-0.0231 c 0.01281,-0.01282 0.0853,-0.126962 0.161428,-0.253913 z m 4.969847,-5.609119 c 0,-0.0063 -0.0052,-0.01155 -0.01155,-0.01155 -0.0063,0 -0.01155,0.0052 -0.01155,0.01155 0,0.0063 0.0052,0.01155 0.01155,0.01155 0.0063,0 0.01155,-0.0052 0.01155,-0.01155 z m 5.119013,-2.207795 c -0.354616,-0.04061 -1.079522,-0.2208658 -1.079522,-0.2684635 0,-0.00873 0.746043,-0.7640004 1.657875,-1.6782814 0.911833,-0.9142814 1.7032,-1.7194578 1.758595,-1.7892846 0.05542,-0.069836 0.08632,-0.1139819 0.06872,-0.098107 -0.04376,0.039444 -0.07675,0.036316 -0.06058,-0.00567 0.0073,-0.019022 0.0072,-0.034635 -8.15e-4,-0.034635 -0.0522,0 -0.571929,0.5041136 -2.761521,2.6784432 L 22.498953,9.7637562 21.925092,9.4742759 C 21.609474,9.3150004 21.328408,9.1687861 21.300503,9.1493062 l -0.05073,-0.035417 1.416547,-1.3952634 c 0.779099,-0.767391 1.692858,-1.6655317 2.030572,-1.9958651 0.337716,-0.3303331 0.615574,-0.6117377 0.617466,-0.6253421 0.0018,-0.013549 -0.07426,-0.069178 -0.169213,-0.1235128 L 24.972502,4.8751171 24.58539,5.2525382 C 24.372471,5.4601211 23.995725,5.827082 23.748163,6.0680086 23.108297,6.6907247 22.173522,7.6087246 21.472604,8.3027348 L 20.870547,8.8988541 20.676236,8.780288 C 20.569365,8.7150565 20.468434,8.6486792 20.451926,8.6327134 l -0.03001,-0.029011 0.630161,-0.6173682 C 21.636759,7.413517 22.648292,6.4145146 23.913344,5.1605091 l 0.522978,-0.5184108 0.146422,0.028446 c 0.457808,0.088902 0.982677,0.4533392 1.728702,1.2002662 0.361138,0.3615738 0.62829,0.6820133 0.758863,0.9102296 0.08926,0.1559826 0.186418,0.4125555 0.186418,0.4921975 v 0.061024 L 25.880805,8.698067 c -0.756729,0.7500954 -1.403337,1.376324 -1.436878,1.39162 l -0.06097,0.02782 -0.207738,-0.0018 c -0.114264,-0.0011 -0.288067,-0.01125 -0.386236,-0.0224 z m 3.767866,-3.1076747 c 0,-0.060194 -0.144753,-0.3520778 -0.257143,-0.5185049 C 27.106922,6.1814808 26.944058,5.9933464 26.569785,5.6237859 26.132703,5.1922038 25.861292,4.9526526 25.576339,4.7469501 25.357394,4.5888904 24.950206,4.3719495 24.872514,4.3719495 h -0.04869 l 0.02887,-0.028863 0.02887,-0.028863 0.246954,6.909e-4 0.246955,6.907e-4 0.166542,0.07174 c 0.327895,0.1412673 0.665096,0.4084315 1.231047,0.975384 0.566849,0.5678534 0.797646,0.9051791 0.902199,1.3186262 l 0.04609,0.1822638 -0.06496,0.081424 c -0.07227,0.090563 -0.09959,0.1016278 -0.09959,0.040363 z M 27.986495,6.4990081 C 27.970534,6.3780309 27.831082,6.0713421 27.714224,5.8998226 27.449406,5.5111368 26.928259,4.9688106 26.399838,4.5320183 25.95174,4.1616226 25.62103,3.9872321 25.283169,3.9431791 l -0.11544,-0.015083 0.41549,-0.4037635 c 0.449464,-0.4367771 0.574089,-0.53362 0.785729,-0.6105836 L 26.506542,2.863701 26.74015,2.853644 26.973759,2.843587 27.10948,2.882548 c 0.07465,0.021429 0.200979,0.075193 0.280726,0.119469 l 0.144996,0.080506 0.224315,0.2102723 c 0.123383,0.1156434 0.411647,0.3980067 0.640608,0.6274608 l 0.416288,0.4171884 0.07363,0.1406554 c 0.138496,0.2645252 0.179663,0.6055873 0.109167,0.9045798 -0.07093,0.3008205 -0.174502,0.4442264 -0.641663,0.8884264 l -0.356392,0.338881 z"
     id="path2" /><text
     xml:space="preserve"
     style="font-size:3.175px;white-space:pre;inline-size:8.61275;fill:none;stroke:#000000;stroke-width:0.264583;stroke-opacity:1"
     x="10.382353"
     y="20.108299"
     id="text2"
     transform="matrix(2.3135759,0,0,2.3135759,-19.622687,-26.181554)"><tspan
       x="10.382353"
       y="20.108299"
       id="tspan2">ğ¡šğª¦</tspan></text><text
     xml:space="preserve"
     style="font-size:7.34559px;fill:#000000;fill-opacity:1;stroke:#000000;stroke-width:0.612132;stroke-opacity:1"
     x="8.9795446"
     y="25.29254"
     id="text3"><tspan
       id="tspan3"
       style="fill:#000000;fill-opacity:1;stroke-width:0.612132"
       x="8.9795446"
       y="25.29254"
       sodipodi:role="line">ğ£«ğªœ</tspan></text><text
     xml:space="preserve"
     style="font-size:7.34559px;fill:none;stroke:#000000;stroke-width:0.612132;stroke-opacity:1"
     x="3.331007"
     y="29.581806"
     id="text4"><tspan
       sodipodi:role="line"
       id="tspan4"
       style="stroke-width:0.612132"
       x="3.331007"
       y="29.581806">ğ¦›ğª¤</tspan></text></svg>
