<?xml version="1.0" encoding="UTF-8" standalone="no"?>
<svg
   width="33.750061mm"
   height="33.750061mm"
   viewBox="0 0 33.750061 33.750061"
   version="1.1"
   id="svg974"
   sodipodi:docname="io.github.Samuel_Schlemper_Schlemuel.SingWriter.svg"
   inkscape:version="1.3.2 (091e20ef0f, 2023-11-25)"
   xml:space="preserve"
   xmlns:inkscape="http://www.inkscape.org/namespaces/inkscape"
   xmlns:sodipodi="http://sodipodi.sourceforge.net/DTD/sodipodi-0.dtd"
   xmlns="http://www.w3.org/2000/svg"
   xmlns:svg="http://www.w3.org/2000/svg"
   xmlns:rdf="http://www.w3.org/1999/02/22-rdf-syntax-ns#"
   xmlns:cc="http://creativecommons.org/ns#"
   xmlns:dc="http://purl.org/dc/elements/1.1/"><sodipodi:namedview
     id="namedview1"
     pagecolor="#ffffff"
     bordercolor="#000000"
     borderopacity="0.25"
     inkscape:showpageshadow="2"
     inkscape:pageopacity="0.0"
     inkscape:pagecheckerboard="0"
     inkscape:deskcolor="#d1d1d1"
     inkscape:document-units="mm"
     inkscape:zoom="4"
     inkscape:cx="51.5"
     inkscape:cy="58.625"
     inkscape:window-width="1366"
     inkscape:window-height="699"
     inkscape:window-x="0"
     inkscape:window-y="0"
     inkscape:window-maximized="1"
     inkscape:current-layer="svg974" /><defs
     id="defs968"><clipPath
       clipPathUnits="userSpaceOnUse"
       id="clipPath18689"><rect
         clip-path="none"
         transform="rotate(45)"
         ry="32.000008"
         rx="32.000008"
         y="123.9986"
         x="486.03726"
         height="362.94299"
         width="362.94299"
         id="rect18691"
         style="display:inline;opacity:1;vector-effect:none;fill:#4a86cf;fill-opacity:1;stroke:none;stroke-width:26.0669;stroke-linecap:butt;stroke-linejoin:miter;stroke-miterlimit:4;stroke-dasharray:none;stroke-dashoffset:0;stroke-opacity:1;marker:none;marker-start:none;marker-mid:none;marker-end:none;paint-order:normal;enable-background:new" /></clipPath><clipPath
       clipPathUnits="userSpaceOnUse"
       id="clipPath18689-3"><rect
         clip-path="none"
         transform="rotate(45)"
         ry="32.000008"
         rx="32.000008"
         y="123.9986"
         x="486.03726"
         height="362.94299"
         width="362.94299"
         id="rect18691-6"
         style="display:inline;opacity:1;vector-effect:none;fill:#4a86cf;fill-opacity:1;stroke:none;stroke-width:26.0669;stroke-linecap:butt;stroke-linejoin:miter;stroke-miterlimit:4;stroke-dasharray:none;stroke-dashoffset:0;stroke-opacity:1;marker:none;marker-start:none;marker-mid:none;marker-end:none;paint-order:normal;enable-background:new" /></clipPath><linearGradient
       id="a"
       gradientUnits="userSpaceOnUse"
       x1="100"
       x2="108"
       y1="112.00034"
       y2="112.00034"
       gradientTransform="matrix(-0.26458333,0,0,0.26458333,33.353262,1.2014766)"><stop
         offset="0"
         stop-color="#6ce4ab"
         id="stop1" /><stop
         offset="0.5"
         stop-color="#a9fbd0"
         id="stop2" /><stop
         offset="1"
         stop-color="#6ce4ab"
         id="stop3" /></linearGradient></defs><metadata
     id="metadata971"><rdf:RDF><cc:Work
         rdf:about=""><dc:format>image/svg+xml</dc:format><dc:type
           rdf:resource="http://purl.org/dc/dcmitype/StillImage" /><dc:title /></cc:Work></rdf:RDF></metadata><path
     d="M 29.205743,4.2990471 V 28.640713 H 8.3036569 c -1.318783,0 -2.38125,-1.062466 -2.38125,-2.38125 V 5.6219637 c 0,-1.3187825 1.062467,-2.3812499 2.38125,-2.3812499 H 28.123639"
     fill="#f3ffe0"
     id="path17"
     style="stroke-width:0.264583" /><path
     style="opacity:1;fill:#333333;stroke:#ffffff;stroke-width:0.264583;stroke-opacity:1"
     d="m 12.077586,8.1035387 0.0024,2.9016453 3.79038,-0.01258 1.308957,-1.4616552 -1.326875,-1.4549411 z"
     id="path1" /><path
     style="opacity:1;fill:#ffffff;stroke:#000000;stroke-width:0;stroke-dasharray:none;stroke-opacity:1"
     d="m 12.901398,8.9714988 0.0089,1.0660062 2.456932,-0.0092 0.47217,-0.5269762 -0.475772,-0.531191 z"
     id="path3" /><path
     style="opacity:1;fill:#333333;stroke:#ffffff;stroke-width:0;stroke-dasharray:none;stroke-opacity:1"
     d="m 20.059058,13.021584 c -0.436753,-1.035559 -1.681523,-0.950129 -2.11393,-0.184425 -0.433041,0.676659 0.06732,1.976353 1.261539,1.734607 l 0.0012,1.631236 3.180297,0.0013 -6.09e-4,-3.181748 z"
     id="path4"
     sodipodi:nodetypes="ccccccc" /><ellipse
     style="opacity:1;fill:#ffffff;stroke:#000000;stroke-width:0;stroke-dasharray:none;stroke-opacity:1"
     id="path5"
     cx="18.963894"
     cy="13.435211"
     rx="0.25524113"
     ry="0.26787582" /><path
     style="opacity:1;fill:#333333;stroke:#ffffff;stroke-width:0;stroke-dasharray:none;stroke-opacity:1"
     d="m 13.550959,14.822124 -1.167218,1.152476 0.769428,0.776415 0.105592,0.967239 c -0.121316,0.13035 -0.260987,0.250724 -0.361981,0.392118 -0.249866,0.256257 -0.478255,0.546371 -0.6292,0.958583 -0.06721,0.199105 -0.09683,0.402151 -0.09671,0.608311 8.58e-4,0.215892 0.04383,0.397588 0.100806,0.567904 0.07929,0.229634 0.195678,0.449634 0.35432,0.658665 0.174114,0.249243 0.392058,0.48973 0.634571,0.72531 l -0.809177,0.798613 2.762714,2.65e-4 -0.001,-2.760713 -0.789622,0.801243 -0.488343,-0.520086 0.0176,-0.590095 c 0.325704,-0.353715 0.705773,-0.675847 0.906559,-1.07577 0.180044,-0.31404 0.327384,-0.639898 0.288931,-1.04733 -0.0041,-0.273078 -0.07552,-0.537895 -0.224538,-0.808351 -0.168426,-0.341873 -0.429753,-0.668502 -0.746026,-0.977618 z"
     id="path6"
     sodipodi:nodetypes="ccccccccccccccccccccc" /><path
     d="m 6.0081603,23.651269 c 0,1.318784 1.0624662,2.38125 2.38125,2.38125 H 26.116495 v 4.233333 H 8.3894103 c -1.3187838,0 -2.38125,-1.062466 -2.38125,-2.38125 z m 0,0"
     fill="url(#a)"
     id="path19"
     style="fill:#f9f06b;stroke-width:0.264583" /></svg>
